<svg xmlns="http://www.w3.org/2000/svg" width="256" height="256" viewBox="0 0 100 100"><rect width="100" height="100" rx="20" fill="#000000"></rect><path fill="#fff" d="M47.50 67.50L22.50 67.50L22.50 62.50L17.50 62.50L17.50 57.50L12.50 57.50L12.50 42.50L17.50 42.50L17.50 37.50L22.50 37.50L22.50 32.50L47.50 32.50L47.50 37.50L27.50 37.50L27.50 42.50L22.50 42.50L22.50 57.50L27.50 57.50L27.50 62.50L37.50 62.50L37.50 52.50L32.50 52.50L32.50 47.50L47.50 47.50L47.50 67.50ZM87.50 67.50L62.50 67.50L62.50 62.50L57.50 62.50L57.50 57.50L52.50 57.50L52.50 42.50L57.50 42.50L57.50 37.50L62.50 37.50L62.50 32.50L87.50 32.50L87.50 37.50L67.50 37.50L67.50 42.50L62.50 42.50L62.50 57.50L67.50 57.50L67.50 62.50L77.50 62.50L77.50 52.50L72.50 52.50L72.50 47.50L87.50 47.50L87.50 67.50Z"></path></svg>